<?xml version="1.0" encoding="utf-8"?>
<!-- Generator: Adobe Illustrator 16.0.0, SVG Export Plug-In . SVG Version: 6.00 Build 0)  -->
<!DOCTYPE svg PUBLIC "-//W3C//DTD SVG 1.1//EN" "http://www.w3.org/Graphics/SVG/1.1/DTD/svg11.dtd">
<svg version="1.1" id="Layer_1" xmlns="http://www.w3.org/2000/svg" xmlns:xlink="http://www.w3.org/1999/xlink" x="0px" y="0px"
	 width="975.141px" height="191.16px" viewBox="12.424 404.419 975.141 191.16"
	 enable-background="new 12.424 404.419 975.141 191.16" xml:space="preserve">
<g>
	<g>
		<path fill="#FFFFFF" d="M290.3,546.771c-24.083,0-42.381-12.327-42.381-33.713h16.843c3.713,0,6.931,2.392,8.236,5.873
			c2.434,6.491,9.092,9.735,17.302,9.735c9.629,0,15.414-3.465,15.414-10.6c0-20.424-56.059-3.077-56.059-42.382
			c0-17.919,16.375-29.092,37.761-29.092c23.111,0,40.457,14.26,40.457,32.559h-17.143c-3.51,0-6.632-2.116-8.024-5.335
			c-2.311-5.317-8.06-8.915-15.281-8.915c-8.668,0-14.444,3.658-14.444,9.822c0,18.492,56.64,2.698,56.64,42.381
			C329.594,535.405,312.839,546.771,290.3,546.771z"/>
		<path fill="#FFFFFF" d="M432.873,504.392H360.44c2.505,14.065,11.755,22.151,26.005,22.151c8.219,0,13.695-2.495,17.126-6.992
			c1.692-2.223,4.259-3.606,7.055-3.606h20.123c-5.775,20.034-22.539,30.819-45.272,30.819c-27.548,0-47.777-20.607-47.777-50.088
			c0-29.479,20.229-50.089,47.777-50.089c27.549,0,47.778,20.608,47.778,50.089C433.263,499.383,433.069,501.887,432.873,504.392z
			 M360.635,488.016h49.7c-2.506-13.482-11.367-21.189-24.852-21.189C372,466.826,363.139,474.532,360.635,488.016z"/>
		<path fill="#FFFFFF" d="M466.517,544.851h-23.122v-96.322h9.25c7.664,0,13.872,6.208,13.872,13.871l0,0
			c5.97-10.212,15.793-15.793,27.742-15.793c20.423,0,35.829,13.481,35.829,40.644v57.602h-23.122v-52.98
			c0-16.182-7.707-25.044-20.229-25.044c-12.521,0-20.229,8.862-20.229,25.044v52.98L466.517,544.851L466.517,544.851z"/>
		<path fill="#FFFFFF" d="M583.623,546.771c-24.082,0-42.381-12.327-42.381-33.713h16.844c3.713,0,6.932,2.392,8.235,5.873
			c2.435,6.491,9.093,9.735,17.303,9.735c9.63,0,15.413-3.465,15.413-10.6c0-20.424-56.058-3.077-56.058-42.382
			c0-17.919,16.375-29.092,37.76-29.092c23.113,0,40.459,14.26,40.459,32.559h-17.144c-3.51,0-6.631-2.116-8.024-5.335
			c-2.311-5.317-8.06-8.915-15.281-8.915c-8.668,0-14.444,3.658-14.444,9.822c0,18.492,56.641,2.698,56.641,42.381
			C622.928,535.405,606.162,546.771,583.623,546.771z"/>
		<path fill="#FFFFFF" d="M695.044,530.591c-6.164,11.367-17.337,16.183-30.626,16.183c-16.57,0-32.363-8.28-32.363-27.742
			c0-41.42,62.609-22.929,62.609-42.188c0-7.513-7.707-11.938-17.726-11.938c-8.358,0-14.683,1.445-16.976,8.219
			c-1.227,3.615-4.506,6.128-8.324,6.128h-16.693c0-25.044,20.424-32.645,41.993-32.645c21.19,0,40.838,8.668,40.838,31.208v67.036
			h-8.475C701.428,544.851,695.044,538.466,695.044,530.591L695.044,530.591z M669.233,527.514c13.483,0,25.813-7.708,25.813-22.346
			v-4.427c-15.415,6.356-39.305,4.427-39.305,16.755C655.74,524.232,661.526,527.514,669.233,527.514z"/>
		<path fill="#FFFFFF" d="M773.791,525.582c3.271,0,7.318-0.582,10.6-1.729v20.608c-3.465,1.155-9.629,2.311-15.22,2.311
			c-19.074,0-32.945-7.513-32.945-33.323v-44.691l0,0c-8.51,0-15.415-6.896-15.415-15.415v-4.813h15.415v-44.109l0,0
			c12.769,0,23.121,10.353,23.121,23.122v20.987h4.814c11.173,0,20.229,9.057,20.229,20.229l0,0h-25.044v43.147
			C759.347,521.35,763.774,525.582,773.791,525.582z"/>
		<path fill="#FFFFFF" d="M884.629,504.392h-72.435c2.504,14.065,11.755,22.151,26.005,22.151c8.219,0,13.695-2.495,17.126-6.992
			c1.692-2.223,4.259-3.606,7.056-3.606h20.123c-5.776,20.034-22.54,30.819-45.273,30.819c-27.549,0-47.777-20.607-47.777-50.088
			c0-29.479,20.229-50.089,47.777-50.089s47.777,20.608,47.777,50.089C885.008,499.383,884.823,501.887,884.629,504.392z
			 M812.39,488.016h49.7c-2.506-13.482-11.367-21.189-24.852-21.189C823.746,466.825,814.885,474.532,812.39,488.016z"/>
		<path fill="#FFFFFF" d="M917.257,494.18v50.662h-23.121v-139.41l0,0c12.769,0,23.121,10.353,23.121,23.122v61.977l37.372-41.993
			h30.44l-42.39,43.722l44.885,52.593h-28.896L917.257,494.18z"/>
	</g>
	<g>
		<g>
			<g>
				
					<linearGradient id="SVGID_1_" gradientUnits="userSpaceOnUse" x1="88.7712" y1="-1672.1621" x2="152.1272" y2="-1672.1621" gradientTransform="matrix(0.8561 -0.2115 0.2115 0.8561 328.8149 1909.7642)">
					<stop  offset="0" style="stop-color:#009696"/>
					<stop  offset="1" style="stop-color:#03DDBD"/>
				</linearGradient>
				<path fill="url(#SVGID_1_)" d="M66.94,498.271c-0.527,0.607-1.03,1.233-1.524,1.852c-14.674-19.373-11.569-48.263-9.356-60.591
					c0.31-1.72,0.671-5.802,1.508-7.602c14.789-13.078,28.758-22.946,33.96-26.508c1.129-0.767,2.682-0.344,3.236,0.908
					C108.651,437.884,90.653,470.97,66.94,498.271z"/>
				
					<linearGradient id="SVGID_2_" gradientUnits="userSpaceOnUse" x1="50.3948" y1="-1567.3643" x2="112.9832" y2="-1567.3643" gradientTransform="matrix(0.8561 -0.2115 0.2115 0.8561 328.8149 1909.7642)">
					<stop  offset="0" style="stop-color:#2FD9C5"/>
					<stop  offset="1" style="stop-color:#B0EA74"/>
				</linearGradient>
				<path fill="url(#SVGID_2_)" d="M47.293,559.321c2.407,2.397,4.85,4.727,7.283,6.975c15.389,14.225,30.344,25.08,35.759,28.881
					c1.11,0.784,2.681,0.379,3.245-0.854c14.295-31.376-3.289-64.691-26.649-92.303c-0.529-0.616-1.021-1.242-1.508-1.896
					C50.521,519.33,53.245,548.271,55.3,560.626c0.335,2.021-2.028,3.352-3.58,2.021c-3.043-2.61-7.275-6.411-11.826-11.086
					c-0.353-0.353-0.696-0.714-1.04-1.074L47.293,559.321z"/>
				<g>
					
						<linearGradient id="SVGID_3_" gradientUnits="userSpaceOnUse" x1="33.8416" y1="-1625.6235" x2="103.2371" y2="-1625.6235" gradientTransform="matrix(0.8561 -0.2115 0.2115 0.8561 328.8149 1909.7642)">
						<stop  offset="0" style="stop-color:#009696"/>
						<stop  offset="1" style="stop-color:#03DDBD"/>
					</linearGradient>
					<path fill="url(#SVGID_3_)" d="M57.566,431.932c-2.883,2.549-5.793,5.221-8.677,7.98c-0.079,0.079-0.159,0.158-0.229,0.238
						c-3.112,3.121-6.375,6.473-8.811,8.959c0.282-0.282,0.556-0.557,0.829-0.829c-0.432,0.433-0.864,0.863-1.305,1.313
						c-13.536,14.585-24.771,30.952-26.686,46.35c-0.168,1.366-0.256,2.733-0.265,4.108c0,1.217,0.07,2.443,0.212,3.66
						c1.72,15.423,12.751,31.931,26.102,46.692c0.036,0.036,0.071,0.07,0.09,0.105c0.344,0.361,0.688,0.714,1.04,1.075
						c2.584,2.708,5.168,5.397,7.417,7.761c2.406,2.398,7.194,6.913,9.629,9.162c-0.749-3.042-1.375-6.313-1.632-7.866
						c-2.055-12.354-4.779-41.296,10.123-60.502c-14.665-19.392-11.561-48.28-9.348-60.608
						C56.366,437.822,57.302,432.787,57.566,431.932z M46.631,442.584c0.494-0.45,0.979-0.882,1.446-1.306
						C47.602,441.702,47.125,442.134,46.631,442.584z M41.429,447.514c0.379-0.38,0.758-0.74,1.137-1.11
						C42.187,446.772,41.808,447.143,41.429,447.514z M43.219,445.776c0.405-0.39,0.811-0.769,1.208-1.146
						C44.03,445,43.624,445.379,43.219,445.776z M44.956,444.127c0.448-0.414,0.882-0.82,1.313-1.217
						C45.838,443.307,45.406,443.713,44.956,444.127z M48.228,441.146c1.578-1.402,3.024-2.646,4.269-3.679
						C51.243,438.51,49.806,439.735,48.228,441.146z"/>
					
						<linearGradient id="SVGID_4_" gradientUnits="userSpaceOnUse" x1="79.7097" y1="-1684.9893" x2="90.0364" y2="-1695.3158" gradientTransform="matrix(0.8561 -0.2115 0.2115 0.8561 328.8149 1909.7642)">
						<stop  offset="0" style="stop-color:#2FD9C5"/>
						<stop  offset="1" style="stop-color:#B0EA74"/>
					</linearGradient>
					<path fill="url(#SVGID_4_)" d="M39.374,449.577c2.469-2.515,5.97-6.111,9.285-9.438
						C45.502,443.184,42.381,446.332,39.374,449.577z"/>
				</g>
			</g>
			<g>
				
					<linearGradient id="SVGID_5_" gradientUnits="userSpaceOnUse" x1="4062.8704" y1="5640.1113" x2="4126.2227" y2="5640.1113" gradientTransform="matrix(-0.8561 0.2115 -0.2115 -0.8561 4835.5254 4510.3892)">
					<stop  offset="0" style="stop-color:#009696"/>
					<stop  offset="1" style="stop-color:#03DDBD"/>
				</linearGradient>
				<path fill="url(#SVGID_5_)" d="M148.703,502.346c0.528-0.607,1.031-1.233,1.525-1.852c14.664,19.383,11.569,48.271,9.355,60.591
					c-0.31,1.72-0.67,5.802-1.508,7.603c-14.788,13.076-28.758,22.944-33.959,26.508c-1.13,0.767-2.682,0.344-3.236-0.908
					C106.984,562.733,124.991,529.646,148.703,502.346z"/>
				
					<linearGradient id="SVGID_6_" gradientUnits="userSpaceOnUse" x1="4024.4856" y1="5744.9102" x2="4087.0745" y2="5744.9102" gradientTransform="matrix(-0.8561 0.2115 -0.2115 -0.8561 4835.5254 4510.3892)">
					<stop  offset="0" style="stop-color:#2FD9C5"/>
					<stop  offset="1" style="stop-color:#B0EA74"/>
				</linearGradient>
				<path fill="url(#SVGID_6_)" d="M168.351,441.296c-2.407-2.397-4.85-4.727-7.284-6.975c-15.388-14.224-30.344-25.08-35.758-28.88
					c-1.111-0.785-2.681-0.379-3.245,0.855c-14.295,31.375,3.289,64.691,26.648,92.301c0.529,0.617,1.022,1.244,1.508,1.896
					c14.903-19.207,12.179-48.148,10.124-60.503c-0.335-2.021,2.028-3.352,3.58-2.021c3.042,2.61,7.274,6.411,11.825,11.085
					c0.353,0.354,0.696,0.714,1.041,1.076L168.351,441.296z"/>
				<g>
					
						<linearGradient id="SVGID_7_" gradientUnits="userSpaceOnUse" x1="4008.01" y1="5686.6484" x2="4077.4075" y2="5686.6484" gradientTransform="matrix(-0.8561 0.2115 -0.2115 -0.8561 4835.5254 4510.3892)">
						<stop  offset="0" style="stop-color:#009696"/>
						<stop  offset="1" style="stop-color:#03DDBD"/>
					</linearGradient>
					<path fill="url(#SVGID_7_)" d="M158.077,568.688c2.884-2.55,5.794-5.222,8.678-7.981c0.079-0.079,0.158-0.158,0.229-0.237
						c3.113-3.122,6.376-6.473,8.811-8.96c-0.282,0.282-0.556,0.557-0.828,0.829c0.432-0.433,0.864-0.864,1.305-1.313
						c13.536-14.586,24.771-30.953,26.686-46.351c0.167-1.367,0.256-2.732,0.265-4.108c0-1.218-0.071-2.442-0.212-3.66
						c-1.72-15.423-12.751-31.932-26.104-46.692c-0.034-0.035-0.069-0.071-0.088-0.105c-0.344-0.361-0.688-0.715-1.041-1.075
						c-2.583-2.708-5.167-5.397-7.416-7.762c-2.406-2.397-7.194-6.912-9.63-9.161c0.75,3.043,1.376,6.313,1.632,7.865
						c2.056,12.354,4.779,41.296-10.123,60.503c14.664,19.384,11.569,48.271,9.355,60.592
						C159.277,562.796,158.342,567.831,158.077,568.688z M169.012,558.033c-0.493,0.45-0.979,0.882-1.446,1.306
						C168.033,558.915,168.519,558.483,169.012,558.033z M174.206,553.104c-0.379,0.38-0.76,0.74-1.139,1.11
						C173.448,553.845,173.827,553.475,174.206,553.104z M172.416,554.842c-0.405,0.389-0.813,0.768-1.208,1.146
						C171.614,555.617,172.011,555.238,172.416,554.842z M170.679,556.49c-0.449,0.414-0.882,0.819-1.313,1.217
						C169.797,557.311,170.239,556.904,170.679,556.49z M167.416,559.471c-1.578,1.402-3.024,2.646-4.27,3.679
						C164.392,562.107,165.838,560.882,167.416,559.471z"/>
					
						<linearGradient id="SVGID_8_" gradientUnits="userSpaceOnUse" x1="4053.7913" y1="5627.2168" x2="4064.1167" y2="5616.8911" gradientTransform="matrix(-0.8561 0.2115 -0.2115 -0.8561 4835.5254 4510.3892)">
						<stop  offset="0" style="stop-color:#2FD9C5"/>
						<stop  offset="1" style="stop-color:#B0EA74"/>
					</linearGradient>
					<path fill="url(#SVGID_8_)" d="M176.27,551.041c-2.469,2.513-5.97,6.11-9.286,9.436
						C170.141,557.434,173.263,554.286,176.27,551.041z"/>
				</g>
			</g>
		</g>
		<circle fill="#FFC901" cx="106.631" cy="499.895" r="19.136"/>
	</g>
</g>
</svg>
